#Comment line ignore any data following # character 
#Hierarchical Translation and Rotation (.htr) file 
[Header]	
#Header keywords are followed by a single value 
FileType HTR		#Single word string
DataType HTRS		#Translation followed by rotation and scale data
FileVersion 1		#integer
NumSegments 64		#integer
NumFrames 3		#integer
DataFrameRate 30		#integer, data frame rate in this file
EulerRotationOrder ZYX
CalibrationUnits mm
RotationUnits Degrees
GlobalAxisofGravity Y
BoneLengthAxis Y
ScaleFactor 1.00
[SegmentNames&Hierarchy]
#CHILD	PARENT
Pinger_Root GLOBAL
Pelvis Pinger_Root
L_Hip Pelvis
R_Hip Pelvis
Rear_Leg01 Pelvis
Spine1 Pelvis
L_Leg01 L_Hip
L_Leg02 L_Leg01
L_Leg03 L_Leg02
L_Foot L_Leg03
L_Toe1_01 L_Foot
L_Toe2_01 L_Foot
L_Toe3_01 L_Foot
planeAlignerLeft L_Foot
L_Toe1_02 L_Toe1_01
L_Toe1_03 L_Toe1_02
L_Toe2_02 L_Toe2_01
L_Toe2_03 L_Toe2_02
L_Toe3_02 L_Toe3_01
L_Toe3_03 L_Toe3_02
planeLockWeightLeft planeAlignerLeft
R_Leg01 R_Hip
R_Leg02 R_Leg01
R_Leg03 R_Leg02
R_Foot R_Leg03
planeAlignerRight R_Foot
R_Toe1_01 R_Foot
R_Toe2_01 R_Foot
R_Toe3_01 R_Foot
planeLockWeightRight planeAlignerRight
R_Toe1_02 R_Toe1_01
R_Toe1_03 R_Toe1_02
R_Toe2_02 R_Toe2_01
R_Toe2_03 R_Toe2_02
R_Toe3_02 R_Toe3_01
R_Toe3_03 R_Toe3_02
Rear_Leg02 Rear_Leg01
Rear_Leg03 Rear_Leg02
Rear_Leg04 Rear_Leg03
Rear_Foot Rear_Leg04
planeAlignerCenter Rear_Foot
Rear_Toe1_01 Rear_Foot
Rear_Toe2_01 Rear_Foot
Rear_Toe3_01 Rear_Foot
planeLockWeightCenter planeAlignerCenter
Rear_Toe1_02 Rear_Toe1_01
Rear_Toe1_03 Rear_Toe1_02
Rear_Toe2_02 Rear_Toe2_01
Rear_Toe2_03 Rear_Toe2_02
Rear_Toe3_02 Rear_Toe3_01
Rear_Toe3_03 Rear_Toe3_02
Back_Bone Spine1
Head Spine1
Motor_Bone Back_Bone
Ping_Mechanism Back_Bone
BN_LookIK Head
bottomMouth Head
L_Mouth01 Head
L_mouthFront Head
mouthGun Head
R_Mouth01 Head
R_mouthFront Head
TopMouth Head
weapon_bone Head
[BasePosition]
#SegmentName Tx, Ty, Tz, Rx, Ry, Rz, BoneLength
Pinger_Root 0.000000 0.000000 0.000000 -90.000000 0.000000 0.000000 10.000000 
Pelvis 0.000000 0.000000 0.000000 0.000000 0.000000 0.000000 10.000000 
L_Hip 0.000000 0.000000 0.000000 0.000000 0.000000 0.000000 10.000000 
R_Hip 0.000000 0.000000 0.000000 0.000000 0.000000 0.000000 10.000000 
Rear_Leg01 0.000000 0.000000 0.000000 0.000000 0.000000 0.000000 10.000000 
Spine1 0.000000 0.000000 0.000000 0.000000 0.000000 0.000000 10.000000 
L_Leg01 0.000000 0.000000 0.000000 0.000000 0.000000 0.000000 10.000000 
L_Leg02 0.000000 0.000000 0.000000 0.000000 0.000000 0.000000 10.000000 
L_Leg03 0.000000 0.000000 0.000000 0.000000 0.000000 0.000000 10.000000 
L_Foot 0.000000 0.000000 0.000000 0.000000 0.000000 0.000000 10.000000 
L_Toe1_01 0.000000 0.000000 0.000000 0.000000 0.000000 0.000000 10.000000 
L_Toe2_01 0.000000 0.000000 0.000000 0.000000 0.000000 0.000000 10.000000 
L_Toe3_01 0.000000 0.000000 0.000000 0.000000 0.000000 0.000000 10.000000 
planeAlignerLeft 0.000000 0.000000 0.000000 0.000000 0.000000 0.000000 10.000000 
L_Toe1_02 0.000000 0.000000 0.000000 0.000000 0.000000 0.000000 10.000000 
L_Toe1_03 0.000000 0.000000 0.000000 0.000000 0.000000 0.000000 10.000000 
L_Toe2_02 0.000000 0.000000 0.000000 0.000000 0.000000 0.000000 10.000000 
L_Toe2_03 0.000000 0.000000 0.000000 0.000000 0.000000 0.000000 10.000000 
L_Toe3_02 0.000000 0.000000 0.000000 0.000000 0.000000 0.000000 10.000000 
L_Toe3_03 0.000000 0.000000 0.000000 0.000000 0.000000 0.000000 10.000000 
planeLockWeightLeft 0.000000 0.000000 0.000000 0.000000 0.000000 0.000000 10.000000 
R_Leg01 0.000000 0.000000 0.000000 0.000000 0.000000 0.000000 10.000000 
R_Leg02 0.000000 0.000000 0.000000 0.000000 0.000000 0.000000 10.000000 
R_Leg03 0.000000 0.000000 0.000000 0.000000 0.000000 0.000000 10.000000 
R_Foot 0.000000 0.000000 0.000000 0.000000 0.000000 0.000000 10.000000 
planeAlignerRight 0.000000 0.000000 0.000000 0.000000 0.000000 0.000000 10.000000 
R_Toe1_01 0.000000 0.000000 0.000000 0.000000 0.000000 0.000000 10.000000 
R_Toe2_01 0.000000 0.000000 0.000000 0.000000 0.000000 0.000000 10.000000 
R_Toe3_01 0.000000 0.000000 0.000000 0.000000 0.000000 0.000000 10.000000 
planeLockWeightRight 0.000000 0.000000 0.000000 0.000000 0.000000 0.000000 10.000000 
R_Toe1_02 0.000000 0.000000 0.000000 0.000000 0.000000 0.000000 10.000000 
R_Toe1_03 0.000000 0.000000 0.000000 0.000000 0.000000 0.000000 10.000000 
R_Toe2_02 0.000000 0.000000 0.000000 0.000000 0.000000 0.000000 10.000000 
R_Toe2_03 0.000000 0.000000 0.000000 0.000000 0.000000 0.000000 10.000000 
R_Toe3_02 0.000000 0.000000 0.000000 0.000000 0.000000 0.000000 10.000000 
R_Toe3_03 0.000000 0.000000 0.000000 0.000000 0.000000 0.000000 10.000000 
Rear_Leg02 0.000000 0.000000 0.000000 0.000000 0.000000 0.000000 10.000000 
Rear_Leg03 0.000000 0.000000 0.000000 0.000000 0.000000 0.000000 10.000000 
Rear_Leg04 0.000000 0.000000 0.000000 0.000000 0.000000 0.000000 10.000000 
Rear_Foot 0.000000 0.000000 0.000000 0.000000 0.000000 0.000000 10.000000 
planeAlignerCenter 0.000000 0.000000 0.000000 0.000000 0.000000 0.000000 10.000000 
Rear_Toe1_01 0.000000 0.000000 0.000000 0.000000 0.000000 0.000000 10.000000 
Rear_Toe2_01 0.000000 0.000000 0.000000 0.000000 0.000000 0.000000 10.000000 
Rear_Toe3_01 0.000000 0.000000 0.000000 0.000000 0.000000 0.000000 10.000000 
planeLockWeightCenter 0.000000 0.000000 0.000000 0.000000 0.000000 0.000000 10.000000 
Rear_Toe1_02 0.000000 0.000000 0.000000 0.000000 0.000000 0.000000 10.000000 
Rear_Toe1_03 0.000000 0.000000 0.000000 0.000000 0.000000 0.000000 10.000000 
Rear_Toe2_02 0.000000 0.000000 0.000000 0.000000 0.000000 0.000000 10.000000 
Rear_Toe2_03 0.000000 0.000000 0.000000 0.000000 0.000000 0.000000 10.000000 
Rear_Toe3_02 0.000000 0.000000 0.000000 0.000000 0.000000 0.000000 10.000000 
Rear_Toe3_03 0.000000 0.000000 0.000000 0.000000 0.000000 0.000000 10.000000 
Back_Bone 0.000000 0.000000 0.000000 0.000000 0.000000 0.000000 10.000000 
Head 0.000000 0.000000 0.000000 0.000000 0.000000 0.000000 10.000000 
Motor_Bone 0.000000 0.000000 0.000000 0.000000 0.000000 0.000000 10.000000 
Ping_Mechanism 0.000000 0.000000 0.000000 0.000000 0.000000 0.000000 10.000000 
BN_LookIK 0.000000 0.000000 0.000000 0.000000 0.000000 0.000000 10.000000 
bottomMouth 0.000000 0.000000 0.000000 0.000000 0.000000 0.000000 10.000000 
L_Mouth01 0.000000 0.000000 0.000000 0.000000 0.000000 0.000000 10.000000 
L_mouthFront 0.000000 0.000000 0.000000 0.000000 0.000000 0.000000 10.000000 
mouthGun 0.000000 0.000000 0.000000 0.000000 0.000000 0.000000 10.000000 
R_Mouth01 0.000000 0.000000 0.000000 0.000000 0.000000 0.000000 10.000000 
R_mouthFront 0.000000 0.000000 0.000000 0.000000 0.000000 0.000000 10.000000 
TopMouth 0.000000 0.000000 0.000000 0.000000 0.000000 0.000000 10.000000 
weapon_bone 0.000000 0.000000 0.000000 0.000000 0.000000 0.000000 10.000000 
#Beginning of Data. Separated by tabs
#Fr	Tx	Ty	Tz	Rx	Ry	Rz	SF
[Pinger_Root]
54 0.000000 0.000000 0.000000 -0.000075 -0.000000 -0.000020 0.000000
55 0.000000 0.000000 0.000000 -0.000075 -0.000000 -0.000020 0.000000
56 0.000000 0.000000 0.000000 -0.000075 -0.000000 -0.000020 0.000000
[Pelvis]
54 44.473816 911.352783 4377.131836 -100.635429 -86.286911 93.018333 4471.222168
55 57.150761 914.302917 4394.388672 -100.924103 -86.626633 93.306557 4488.860352
56 65.411453 915.994690 4407.003906 -101.049820 -86.742256 93.432526 4501.667480
[L_Hip]
54 5.766392 125.831482 872.656799 160.158691 -45.484905 122.312202 881.701050
55 5.766392 125.831482 872.656799 160.158691 -45.484894 122.312202 881.701050
56 5.766392 125.831482 872.656799 160.158691 -45.484905 122.312202 881.701050
[R_Hip]
54 5.765438 125.836372 -872.654907 38.087841 49.812698 125.703735 881.699829
55 5.765438 125.836372 -872.654907 38.087841 49.812687 125.703735 881.699829
56 5.765438 125.836372 -872.654907 38.087841 49.812687 125.703735 881.699829
[Rear_Leg01]
54 -192.298416 -925.602966 -0.001907 169.803375 2.498119 -158.881958 945.367432
55 -192.298416 -925.602966 -0.001907 169.765106 2.300124 -158.645401 945.367432
56 -192.298416 -925.602966 -0.001907 169.750259 2.219890 -158.587982 945.367432
[Spine1]
54 290.604584 5.007505 0.000477 7.265744 -0.619986 19.266817 290.647736
55 290.604584 5.007505 0.000477 7.265744 -0.619986 19.266817 290.647736
56 290.604584 5.007505 0.000477 7.265744 -0.619986 19.266817 290.647736
[L_Leg01]
54 761.932007 -0.002384 -0.069261 22.566628 -16.163397 -7.353780 761.932068
55 761.932007 -0.002384 -0.069261 22.978588 -15.804625 -8.468008 761.932068
56 761.932007 -0.002384 -0.069261 23.245285 -15.558304 -9.246453 761.932068
[L_Leg02]
54 1441.140503 -0.000954 -0.000715 2.941427 -0.192223 -132.147308 1441.140503
55 1441.140503 -0.000954 -0.000715 2.804903 -0.185191 -130.878815 1441.140503
56 1441.140503 -0.000954 -0.000715 2.716760 -0.186341 -130.072021 1441.140503
[L_Leg03]
54 1686.963989 -0.000715 -0.000954 -0.029895 0.014820 118.524872 1686.963989
55 1686.963989 -0.000715 -0.000954 -0.029908 0.014794 118.424072 1686.963989
56 1686.963989 -0.000715 -0.000954 -0.029921 0.014767 118.323273 1686.963989
[L_Foot]
54 3041.570068 -30.715107 11.297464 2.119447 12.936766 56.247589 3041.746094
55 3041.570068 -30.715107 11.297464 1.979457 13.009239 55.939987 3041.746094
56 3041.570068 -30.715107 11.297464 1.964334 13.037580 55.801556 3041.746094
[L_Toe1_01]
54 -188.216690 -224.732346 -21.137953 93.731956 -7.517550 -172.146622 293.899567
55 -188.216690 -224.732346 -21.137953 93.727470 -7.284050 -172.084747 293.899567
56 -188.216690 -224.732346 -21.137953 93.726746 -7.203295 -172.062744 293.899567
[L_Toe2_01]
54 200.746536 -219.926590 148.838394 -89.858948 -27.068743 -52.545403 332.896027
55 200.746536 -219.926590 148.838394 -89.895531 -26.908588 -52.572788 332.896027
56 200.746536 -219.926590 148.838394 -89.932152 -26.748446 -52.600262 332.896027
[L_Toe3_01]
54 188.832520 -219.859131 -191.078659 -99.426582 13.268126 -66.898308 347.140900
55 188.832520 -219.859131 -191.078659 -99.531784 13.435216 -67.123955 347.140900
56 188.832520 -219.859131 -191.078659 -99.637733 13.601897 -67.350052 347.140900
[planeAlignerLeft]
54 0.812531 -811.448792 -0.314951 0.000000 -90.000000 -90.001900 811.449280
55 0.812531 -811.448792 -0.314951 0.000000 -90.000000 -90.001900 811.449280
56 0.812531 -811.448792 -0.314951 0.000000 -90.000000 -90.001900 811.449280
[L_Toe1_02]
54 413.761139 0.000477 0.000000 0.001384 -25.926649 0.001384 413.761139
55 413.761139 0.000477 0.000000 0.001384 -25.931726 0.001384 413.761139
56 413.761139 0.000477 0.000000 0.001384 -25.936808 0.001384 413.761139
[L_Toe1_03]
54 464.317322 0.000358 -0.000089 0.003678 52.780197 0.003678 464.317322
55 464.317322 0.000358 -0.000089 0.003691 52.925213 0.003691 464.317322
56 464.317322 0.000358 -0.000089 0.003705 53.070232 0.003705 464.317322
[L_Toe2_02]
54 342.235809 -0.000477 0.000238 0.001188 -72.237122 0.001188 342.235809
55 342.235809 -0.000477 0.000238 0.001188 -72.253632 0.001188 342.235809
56 342.235809 -0.000477 0.000238 0.001188 -72.270096 0.001188 342.235809
[L_Toe2_03]
54 420.210846 -0.000715 0.000000 0.027214 85.056648 0.027214 420.210846
55 420.210846 -0.000715 0.000000 0.027684 85.140457 0.027684 420.210846
56 420.210846 -0.000715 0.000000 0.028170 85.224434 0.028170 420.210846
[L_Toe3_02]
54 329.270111 0.000954 0.000000 0.001177 -80.949257 0.001177 329.270111
55 329.270111 0.000954 0.000000 0.001177 -80.829689 0.001177 329.270111
56 329.270111 0.000954 0.000000 0.001177 -80.710075 0.001177 329.270111
[L_Toe3_03]
54 439.137451 -0.001907 0.000954 -179.996658 77.054756 -179.993149 439.137451
55 439.137451 -0.001907 0.000954 -179.996490 77.476463 -179.992966 439.137451
56 439.137451 -0.001907 0.000954 -179.996307 77.898048 -179.992798 439.137451
[planeLockWeightLeft]
54 -0.000954 0.000238 -0.000305 -0.011826 -0.004376 0.005620 0.001029
55 -0.000954 0.000238 -0.000305 -0.011826 -0.004376 0.005620 0.001029
56 -0.000954 0.000238 -0.000305 -0.011826 -0.004376 0.005620 0.001029
[R_Leg01]
54 761.455627 -0.001907 -0.000358 119.935402 -8.232965 35.064411 761.455688
55 761.455627 -0.001907 -0.000358 119.838104 -7.858456 35.507507 761.455688
56 761.455627 -0.001907 -0.000358 119.795303 -7.675072 35.724400 761.455688
[R_Leg02]
54 1441.140625 0.000000 -0.000238 -1.381728 -0.221542 -120.074234 1441.140625
55 1441.140625 0.000000 -0.000238 -1.368971 -0.213137 -119.674438 1441.140625
56 1441.140625 0.000000 -0.000238 -1.361516 -0.209586 -119.473915 1441.140625
[R_Leg03]
54 1686.963989 0.000954 0.001431 0.080627 -0.042960 131.807465 1686.963989
55 1686.963989 0.000954 0.001431 0.080195 -0.041692 131.608521 1686.963989
56 1686.963989 0.000954 0.001431 0.079562 -0.041960 131.578308 1686.963989
[R_Foot]
54 3041.560059 -30.531288 -11.204481 0.005141 -24.642384 55.324821 3041.734131
55 3041.560059 -30.531288 -11.204481 -0.272344 -24.666677 55.411156 3041.734131
56 3041.560059 -30.531288 -11.204481 -0.323432 -24.670668 55.400032 3041.734131
[planeAlignerRight]
54 -0.635147 -812.270569 -0.364304 0.000000 -89.960434 -90.005180 812.270874
55 -0.635147 -812.270569 -0.364304 0.000000 -89.960434 -90.005180 812.270874
56 -0.635147 -812.270569 -0.364304 0.000000 -89.960434 -90.005180 812.270874
[R_Toe1_01]
54 -188.383347 -224.864899 21.052242 76.894272 -1.226764 -174.837753 294.101532
55 -188.383347 -224.864899 21.052242 76.852882 -0.983389 -174.245911 294.101532
56 -188.383347 -224.864899 21.052242 76.814003 -0.739619 -173.654327 294.101532
[R_Toe2_01]
54 200.637817 -220.002121 -148.787384 -90.640068 32.830917 -57.226372 332.857574
55 200.637817 -220.002121 -148.787384 -90.965721 32.864830 -57.793407 332.857574
56 200.637817 -220.002121 -148.787384 -91.291885 32.896065 -58.360867 332.857574
[R_Toe3_01]
54 188.606735 -220.092957 191.126343 -72.954590 -9.351352 -72.208801 347.192566
55 188.606735 -220.092957 191.126343 -73.043396 -9.076360 -72.628471 347.192566
56 188.606735 -220.092957 191.126343 -73.108749 -8.854350 -73.028107 347.192566
[planeLockWeightRight]
54 -0.000477 0.000000 0.000000 -0.011823 -0.004379 -0.000027 0.000477
55 -0.000477 0.000000 0.000000 -0.011823 -0.004379 -0.000027 0.000477
56 -0.000477 0.000000 0.000000 -0.011823 -0.004379 -0.000027 0.000477
[R_Toe1_02]
54 413.762085 0.000477 -0.000119 0.000006 -25.434675 -0.000005 413.762085
55 413.762085 0.000477 -0.000119 0.000006 -25.434675 -0.000005 413.762085
56 413.762085 0.000477 -0.000119 0.000006 -25.434675 -0.000005 413.762085
[R_Toe1_03]
54 464.317810 0.000000 0.001088 0.007534 72.075462 0.007534 464.317810
55 464.317810 0.000000 0.001088 0.007253 71.375221 0.007253 464.317810
56 464.317810 0.000000 0.001088 0.006992 70.674965 0.006992 464.317810
[R_Toe2_02]
54 342.234741 -0.000954 0.000238 0.001194 -68.626038 0.001194 342.234741
55 342.234741 -0.000954 0.000238 0.001195 -68.264740 0.001195 342.234741
56 342.234741 -0.000954 0.000238 0.001196 -67.903458 0.001196 342.234741
[R_Toe2_03]
54 420.210846 0.000715 -0.000268 0.010078 76.624222 0.010078 420.210846
55 420.210846 0.000715 -0.000268 0.009475 75.769478 0.009475 420.210846
56 420.210846 0.000715 -0.000268 0.008941 74.914772 0.008941 420.210846
[R_Toe3_02]
54 329.270355 -0.000477 -0.000954 0.001183 -75.436874 0.001183 329.270355
55 329.270355 -0.000477 -0.000954 0.001183 -75.228683 0.001183 329.270355
56 329.270355 -0.000477 -0.000954 0.001184 -75.012695 0.001184 329.270355
[R_Toe3_03]
54 439.137939 0.000238 0.001431 -0.017150 85.722267 -0.013650 439.137939
55 439.137939 0.000238 0.001431 -0.015213 85.106628 -0.011713 439.137939
56 439.137939 0.000238 0.001431 -0.013684 84.478775 -0.010183 439.137939
[Rear_Leg02]
54 1162.777710 -0.029802 0.005960 0.756613 -2.886649 -126.222878 1162.777710
55 1162.777710 -0.029802 0.005960 0.730956 -2.892260 -125.688477 1162.777710
56 1162.777710 -0.029802 0.005960 0.705247 -2.897629 -125.154022 1162.777710
[Rear_Leg03]
54 607.192505 -0.013351 -0.073195 0.010616 -0.004842 65.393929 607.192505
55 607.192505 -0.013351 -0.073195 0.010623 -0.004827 65.228195 607.192505
56 607.192505 -0.013351 -0.073195 0.010630 -0.004812 65.062508 607.192505
[Rear_Leg04]
54 995.874512 -0.020504 -0.011921 -0.043283 -0.018668 60.402061 995.874573
55 995.874512 -0.020504 -0.011921 -0.042400 -0.017377 60.042534 995.874573
56 995.874512 -0.020504 -0.011921 -0.041525 -0.016080 59.683006 995.874573
[Rear_Foot]
54 3096.176270 -0.067472 -0.041425 -140.263947 86.103485 52.759865 3096.176270
55 3096.176270 -0.067472 -0.041425 -141.895004 85.957993 51.091747 3096.176270
56 3096.176270 -0.067472 -0.041425 -143.410339 85.809456 49.539436 3096.176270
[planeAlignerCenter]
54 0.350077 0.966311 -838.790894 0.000009 0.000003 -179.999985 838.791565
55 0.350077 0.966311 -838.790894 0.000009 0.000003 -179.999985 838.791565
56 0.350077 0.966311 -838.790894 0.000009 0.000003 -179.999985 838.791565
[Rear_Toe1_01]
54 0.653352 83.966492 -371.173737 0.288088 41.914127 90.413162 380.553192
55 0.653352 83.966492 -371.173737 0.288091 41.914127 90.413170 380.553192
56 0.653352 83.966492 -371.173737 0.288091 41.914127 90.413170 380.553192
[Rear_Toe2_01]
54 178.200760 -294.826019 -362.060547 -7.196267 34.406261 -66.271294 499.765686
55 178.200760 -294.826019 -362.060547 -7.196267 34.406261 -66.271294 499.765686
56 178.200760 -294.826019 -362.060547 -7.196267 34.406261 -66.271294 499.765686
[Rear_Toe3_01]
54 -153.359680 -308.780914 -362.060852 3.289418 33.518005 -112.540970 499.952881
55 -153.359680 -308.780914 -362.060852 3.289418 33.518005 -112.540970 499.952881
56 -153.359680 -308.780914 -362.060852 3.289418 33.518005 -112.540970 499.952881
[planeLockWeightCenter]
54 -0.000062 0.000238 0.000000 -0.011814 -0.004373 -0.000015 0.000246
55 -0.000062 0.000238 0.000000 -0.011814 -0.004373 -0.000015 0.000246
56 -0.000062 0.000238 0.000000 -0.011814 -0.004373 -0.000015 0.000246
[Rear_Toe1_02]
54 379.707825 0.194073 0.000477 -0.000242 -31.676744 0.006934 379.707855
55 379.707825 0.194073 0.000477 -0.000242 -31.676744 0.006934 379.707855
56 379.707825 0.194073 0.000477 -0.000242 -31.676744 0.006934 379.707855
[Rear_Toe1_03]
54 500.129700 0.165701 0.000119 -0.000103 51.902481 0.007295 500.129761
55 500.129700 0.165701 0.000119 -0.000103 51.902485 0.007295 500.129761
56 500.129700 0.165701 0.000119 -0.000103 51.902481 0.007295 500.129761
[Rear_Toe2_02]
54 340.494507 0.000238 -0.000954 0.001192 -69.854523 0.001192 340.494507
55 340.494507 0.000238 -0.000954 0.001192 -69.854523 0.001192 340.494507
56 340.494507 0.000238 -0.000954 0.001192 -69.854523 0.001192 340.494507
[Rear_Toe2_03]
54 433.103577 0.000000 0.000238 0.006696 69.810326 0.006696 433.103546
55 433.103577 0.000000 0.000238 0.006696 69.810326 0.006696 433.103546
56 433.103577 0.000000 0.000238 0.006696 69.810326 0.006696 433.103546
[Rear_Toe3_02]
54 340.494141 -0.000358 -0.000477 0.008288 -67.274704 -0.009460 340.494171
55 340.494141 -0.000358 -0.000477 0.008288 -67.274704 -0.009460 340.494171
56 340.494141 -0.000358 -0.000477 0.008288 -67.274704 -0.009460 340.494171
[Rear_Toe3_03]
54 433.103577 0.001431 -0.000238 -0.000972 65.959007 -0.004547 433.103546
55 433.103577 0.001431 -0.000238 -0.000972 65.958984 -0.004547 433.103546
56 433.103577 0.001431 -0.000238 -0.000972 65.958984 -0.004547 433.103546
[Back_Bone]
54 1312.175781 -701.934692 0.000954 0.000023 -0.000007 -85.606667 1488.125488
55 1312.175781 -701.934692 0.000954 0.000023 -0.000007 -85.606667 1488.125488
56 1312.175781 -701.934692 0.000954 0.000023 -0.000007 -85.606667 1488.125488
[Head]
54 1406.159424 809.709290 0.001431 0.004787 -1.465376 7.771476 1622.625488
55 1406.159424 809.709290 0.001431 0.004542 -1.465979 7.771274 1622.625488
56 1406.159424 809.709290 0.001431 0.004298 -1.466582 7.771068 1622.625488
[Motor_Bone]
54 1158.364380 -417.834747 0.000477 -0.000105 0.000046 -105.985291 1231.419434
55 1158.364380 -417.834747 0.000477 -0.000105 0.000046 -105.985291 1231.419434
56 1158.364380 -417.834747 0.000477 -0.000105 0.000046 -105.985291 1231.419434
[Ping_Mechanism]
54 1215.237793 -433.297150 0.000954 0.000103 -0.000053 82.120995 1290.174072
55 1215.237793 -433.297150 0.000954 0.000103 -0.000053 82.120995 1290.174072
56 1215.237793 -433.297150 0.000954 0.000103 -0.000053 82.120995 1290.174072
[BN_LookIK]
54 193.241119 1380.371704 -0.002861 0.000000 89.965736 -31.038179 1393.832153
55 193.241119 1380.371704 -0.002861 0.000000 89.965736 -31.038179 1393.832153
56 193.241119 1380.371704 -0.002861 0.000000 89.965736 -31.038179 1393.832153
[bottomMouth]
54 -435.092926 615.759399 -0.000954 -0.000022 0.000016 73.527184 753.966492
55 -435.092926 615.759399 -0.000954 -0.000022 0.000016 73.527184 753.966492
56 -435.092926 615.759399 -0.000954 -0.000022 0.000016 73.527184 753.966492
[L_Mouth01]
54 554.440979 7.658243 838.222046 150.204178 23.759130 109.605339 1005.027161
55 554.440979 7.658243 838.222046 150.204178 23.759130 109.605339 1005.027161
56 554.440979 7.658243 838.222046 150.204178 23.759130 109.605339 1005.027161
[L_mouthFront]
54 551.629089 934.514771 339.150421 0.000081 2.804060 79.119301 1136.941284
55 551.629089 934.514771 339.150421 0.000081 2.804060 79.119301 1136.941284
56 551.629089 934.514771 339.150421 0.000081 2.804060 79.119301 1136.941284
[mouthGun]
54 55.332661 1627.420898 0.000000 0.000023 0.000009 -11.038128 1628.361328
55 55.332661 1627.420898 0.000000 0.000023 0.000009 -11.038128 1628.361328
56 55.332661 1627.420898 0.000000 0.000023 0.000009 -11.038128 1628.361328
[R_Mouth01]
54 554.442383 7.659197 -838.223938 29.795891 -23.759109 109.605331 1005.029541
55 554.442383 7.659197 -838.223938 29.795891 -23.759109 109.605331 1005.029541
56 554.442383 7.659197 -838.223938 29.795891 -23.759109 109.605331 1005.029541
[R_mouthFront]
54 551.629089 934.514282 -339.151367 0.000029 -2.803930 79.119133 1136.941162
55 551.629089 934.514282 -339.151367 0.000029 -2.803930 79.119133 1136.941162
56 551.629089 934.514282 -339.151367 0.000029 -2.803930 79.119133 1136.941162
[TopMouth]
54 461.269867 -56.106091 -0.008583 -0.000059 -0.000268 92.025169 464.669525
55 461.269867 -56.106091 -0.008583 -0.000059 -0.000268 92.025169 464.669525
56 461.269867 -56.106091 -0.008583 -0.000059 -0.000268 92.025169 464.669525
[weapon_bone]
54 -987.239868 1448.372803 0.001431 0.000000 89.965736 -31.038221 1752.833740
55 -987.239868 1448.372803 0.001431 0.000000 89.965736 -31.038221 1752.833740
56 -987.239868 1448.372803 0.001431 0.000000 89.965736 -31.038221 1752.833740
